<svg width="42" height="42" fill="none" xmlns="http://www.w3.org/2000/svg"><g clip-path="url(#clip0)" fill="#EF5B44"><path d="M39.555 3.609A5.482 5.482 0 0034.411 0a5.483 5.483 0 00-4.97 3.167 5.485 5.485 0 004.962 7.798c3.786 0 6.458-3.769 5.152-7.356zm-4.777 34.198a1.37 1.37 0 00-1.82.663 1.372 1.372 0 01-1.815.665l-8.867-4.232-.01-.005 2.895-6.21a2.71 2.71 0 00-.336-2.844l-4.113-5.182 2.505-2.004c.25.204 7.99 3.785 7.899 3.742a2.746 2.746 0 003.64-1.325 2.746 2.746 0 00-1.325-3.64l-3.923-1.83-2.265-6.225a2.759 2.759 0 00-3.526-1.644c-.438.17-4.243 3.233-6.582 5.112l-5.631-2.626.579-1.242A1.37 1.37 0 009.6 7.823l-.579 1.241-1.241-.579a1.37 1.37 0 00-1.158 2.483l1.241.579-.578 1.241a1.37 1.37 0 102.483 1.158l.578-1.241 4.391 2.047c-.09.072-.688.5-1.365 1.037a2.745 2.745 0 00-1.033 1.858 2.66 2.66 0 00.571 1.974l6.566 8.293-2.177 4.668-13.24-6.174A1.37 1.37 0 002.9 28.89l27.07 12.72.011.005a4.114 4.114 0 005.46-1.987 1.37 1.37 0 00-.662-1.82z"/></g><defs><clipPath id="clip0"><path fill="#fff" d="M0 0h42v42H0z"/></clipPath></defs></svg>