<svg width="42" height="42" fill="none" xmlns="http://www.w3.org/2000/svg"><path d="M26.474 9.844l4.175-4.697L28.363 0H13.638L11.35 5.147l4.176 4.697h10.948zM21 23.785c-.414 0-.825-.024-1.23-.07v2.535l-1.6 6.205L21 35.76l2.83-3.305-1.6-6.205v-2.535c-.405.046-.816.07-1.23.07z" fill="#EF5B44"/><path d="M28.88 20.31a10.612 10.612 0 01-4.188 2.822v1.755l1.803 8.238-5.496 6.42-5.494-6.42 1.804-8.238v-1.755a10.612 10.612 0 01-4.189-2.822C10.464 21.98 3 24.938 3 28.3V42h36V28.3c0-3.362-7.464-6.32-10.12-7.99z" fill="#EF5B44"/><path d="M28.878 10.844l-1.299 1.46H14.42l-1.298-1.46a8.21 8.21 0 002.077 8.082A8.18 8.18 0 0021 21.324c2.1 0 4.201-.8 5.8-2.399a8.21 8.21 0 002.078-8.08z" fill="#EF5B44"/></svg>