<svg width="42" height="42" fill="none" xmlns="http://www.w3.org/2000/svg"><g clip-path="url(#clip0)"><path d="M23.285 1.343c-6.326 0-11.926 3.159-15.315 7.978.701.458 1.385 1.085 2.046 1.892 2.529-3.78 6.617-6.433 11.347-7.004l1.922 3.252 1.921-3.252c7.271.877 13.051 6.656 13.928 13.927l-3.252 1.922 3.252 1.922c-.586 4.86-3.37 9.046-7.32 11.555a4.86 4.86 0 01.418 1.764 4.68 4.68 0 01-.118 1.256C37.993 33.395 42 27.187 42 20.058c0-10.32-8.395-18.715-18.715-18.715zm4.776 30.822c-4.314-3.467-5.52-1.763-7.478.194-1.367 1.367-4.825-1.487-7.811-4.474-2.987-2.986-5.841-6.444-4.475-7.811 1.958-1.957 3.662-3.165.194-7.478-3.467-4.314-5.779-1.002-7.675.895-2.19 2.188-.115 10.343 7.945 18.405 8.061 8.06 16.217 10.133 18.405 7.945 1.896-1.896 5.21-4.207.895-7.676zm-13.14-9.178c0-3.835 4.49-4.518 4.49-6.014 0-.727-.581-1.031-1.119-1.031-.988 0-1.54 1.103-1.54 1.103l-1.888-1.264s.959-2.237 3.66-2.237c1.7 0 3.545.974 3.545 3.182 0 3.24-4.184 3.864-4.256 5.201h4.417v2.179h-7.192a6.348 6.348 0 01-.117-1.119zm8.37-2.934l4.01-6.335h3.11v5.768h1.234v2.106h-1.234v2.514h-2.514v-2.514h-4.605v-1.54zm4.606-.567v-2.324c0-.567.087-1.163.087-1.163h-.029s-.217.64-.508 1.075l-1.57 2.383v.03h2.02z" fill="#EF5B44"/></g><defs><clipPath id="clip0"><path fill="#fff" d="M0 0h42v42H0z"/></clipPath></defs></svg>