<svg width="42" height="42" fill="none" xmlns="http://www.w3.org/2000/svg"><g clip-path="url(#clip0)" fill="#EF5B44"><path d="M19.655 18.8l-.181 1.063.954-.5a1.218 1.218 0 011.144 0l.954.5-.181-1.063a1.23 1.23 0 01.353-1.089l.771-.752-1.065-.155a1.228 1.228 0 01-.927-.673L21 15.165l-.477.966a1.229 1.229 0 01-.926.673l-1.066.155.771.752c.29.283.422.69.353 1.089z"/><path d="M21 25.92c4.749 0 8.613-3.865 8.613-8.614 0-4.749-3.864-8.613-8.613-8.613s-8.613 3.864-8.613 8.613c0 4.75 3.864 8.613 8.613 8.613zm-6.284-10.2c.145-.446.53-.77.993-.837l2.894-.421 1.294-2.622c.413-.841 1.793-.841 2.206 0l1.294 2.622 2.894.42a1.23 1.23 0 01.682 2.099l-2.094 2.041.493 2.882a1.23 1.23 0 01-1.784 1.296L21 21.841l-2.588 1.36c-.41.22-.915.182-1.296-.095a1.23 1.23 0 01-.489-1.202l.494-2.882-2.094-2.041a1.23 1.23 0 01-.311-1.26z"/><path d="M4.644 18.176l2.77 2.771L6.4 24.731a1.23 1.23 0 00.87 1.507l3.784 1.014 1.014 3.784a1.23 1.23 0 001.507.87l3.784-1.014 2.771 2.77a1.226 1.226 0 001.74 0l2.77-2.77 3.785 1.014c.66.179 1.33-.213 1.506-.87l1.015-3.784 3.784-1.014a1.23 1.23 0 00.87-1.507l-1.015-3.784 2.771-2.77c.48-.481.48-1.26 0-1.74l-2.77-2.772 1.013-3.784a1.23 1.23 0 00-.87-1.506L30.947 7.36 29.93 3.577a1.228 1.228 0 00-1.506-.87l-3.725.998L21.93.408c-.466-.54-1.394-.54-1.86 0L17.3 3.705l-3.725-.998a1.233 1.233 0 00-1.507.87L11.054 7.36 7.27 8.375A1.23 1.23 0 006.4 9.88l1.015 3.784-2.771 2.771a1.23 1.23 0 000 1.74zM21 6.232c6.107 0 11.074 4.968 11.074 11.074 0 6.107-4.967 11.074-11.074 11.074S9.926 23.413 9.926 17.306C9.926 11.2 14.893 6.232 21 6.232z"/><path d="M41.906 34.183a1.23 1.23 0 00-.267-1.34l-4.97-4.876a3.68 3.68 0 01-1.304.648l-2.41.646-.647 2.412a3.691 3.691 0 01-4.526 2.608l-2.406-.645-.22.22 7.688 7.78a1.23 1.23 0 002.1-.87v-5.823h5.825c.498 0 .947-.3 1.137-.76zm-41.812 0c.19.46.64.76 1.137.76h5.824v5.824a1.23 1.23 0 002.1.87l7.688-7.782-.22-.219-2.41.647c-1.932.53-3.984-.622-4.52-2.604l-.648-2.418-2.411-.646a3.679 3.679 0 01-1.304-.648L.36 32.842a1.23 1.23 0 00-.266 1.341z"/></g><defs><clipPath id="clip0"><path fill="#fff" d="M0 0h42v42H0z"/></clipPath></defs></svg>