<svg width="42" height="42" fill="none" xmlns="http://www.w3.org/2000/svg"><g clip-path="url(#clip0)"><path d="M41.76 15.336a1.08 1.08 0 00-.833-.397h-4.088c-1.009-2.66-2.323-5.268-3.817-6.252-5.167-3.4-18.874-3.4-24.041 0-1.495.985-2.804 3.596-3.818 6.252H1.075c-.324 0-.63.146-.833.397a1.07 1.07 0 00-.22.897l.606 2.933c.103.5.544.857 1.053.857h1.21c-1.168 1.35-1.735 3.047-1.742 4.746-.008 2.1.789 3.997 2.246 5.339.016.014.032.023.047.037v4.105c0 .89.723 1.614 1.614 1.614h3.77c.89 0 1.613-.724 1.613-1.614V32.6h21.123v1.65c0 .89.723 1.614 1.613 1.614h3.77c.889 0 1.614-.724 1.614-1.614v-4.024c1.546-1.416 2.285-3.365 2.294-5.31.007-1.758-.586-3.518-1.823-4.895h1.291c.511 0 .952-.357 1.053-.858l.607-2.933a1.084 1.084 0 00-.22-.894zM10.752 11.38c4.119-2.71 16.378-2.71 20.495 0 .8.525 1.829 2.647 2.772 5.245H7.982c.94-2.597 1.97-4.718 2.77-5.245zM5.928 25.174a3.173 3.173 0 116.346 0 3.173 3.173 0 01-6.346 0zm27.014 3.173a3.174 3.174 0 110-6.348 3.174 3.174 0 010 6.348z" fill="#EF5B44"/></g><defs><clipPath id="clip0"><path fill="#fff" d="M0 0h42.001v42H0z"/></clipPath></defs></svg>