<svg width="42" height="42" fill="none" xmlns="http://www.w3.org/2000/svg"><path d="M37.468 25.779l-4.655 6.086a4.922 4.922 0 01-3.91 1.932h-8.641a1.23 1.23 0 010-2.461h7.49c1.61 0 2.958-1.318 2.927-2.927a2.871 2.871 0 00-2.87-2.815h-8.614a7.126 7.126 0 00-9.08-.662l-.928.662v13.945h21.4a7.383 7.383 0 006.21-3.39l4.802-7.47c.262-.408.4-.882.4-1.366.001-2.416-3.064-3.453-4.531-1.534zM5.496 23.133H1.23c-.68 0-1.23.55-1.23 1.23V40.77C0 41.45.55 42 1.23 42h4.266c.68 0 1.23-.55 1.23-1.23V24.363c0-.68-.55-1.23-1.23-1.23zM23.486 6.8c-.25.193-.388.483-.435.735-.066.348.017.671.211.823.068.054.144.107.224.158V6.801z" fill="#EF5B44"/><path d="M24.363 20.508c5.654 0 10.254-4.6 10.254-10.254S30.017 0 24.363 0 14.11 4.6 14.11 10.254s4.6 10.254 10.254 10.254zm-3.104-6.902a.82.82 0 011.136-.237c.443.29.72.415 1.091.468v-3.465c-.524-.24-.915-.47-1.236-.723-.681-.534-.992-1.46-.812-2.418.197-1.043.923-1.873 1.895-2.166.052-.015.103-.03.153-.043v-.51a.82.82 0 011.641 0v.42c.796.138 1.36.53 1.632.843a.82.82 0 01-1.232 1.083 1.13 1.13 0 00-.4-.237v2.651c.146.054.291.106.434.157 1.442.51 2.244 1.845 1.996 3.322-.193 1.148-1.067 2.312-2.43 2.658v.587a.82.82 0 01-1.64 0v-.509c-.663-.057-1.212-.236-1.99-.745a.82.82 0 01-.238-1.136z" fill="#EF5B44"/><path d="M25.939 12.479c.054-.321.076-1.085-.812-1.459v2.635c.461-.264.737-.732.812-1.176z" fill="#EF5B44"/></svg>