<svg width="42" height="42" fill="none" xmlns="http://www.w3.org/2000/svg"><path d="M15.125 29.16l-.181-.138a.867.867 0 00-.677-.17.904.904 0 00-.591.389l-1.713 2.529a.996.996 0 00-.16.72c.02.125.062.245.125.352a.948.948 0 00.241.276l.182.14c.195.149.438.21.676.169a.904.904 0 00.591-.389l1.713-2.529c.14-.208.198-.466.16-.72a.978.978 0 00-.366-.628zm-1.382-2.055a1 1 0 00-.123-.354.939.939 0 00-.242-.275l-.182-.14a.867.867 0 00-.676-.168.903.903 0 00-.591.388L9.616 29.97a.996.996 0 00-.16.72c.02.125.062.245.125.353a.946.946 0 00.241.275l.182.14c.195.149.438.21.676.169a.903.903 0 00.591-.389l2.313-3.415a1.02 1.02 0 00.16-.72zm3.237 4.58l-.18-.14a.867.867 0 00-.677-.168.903.903 0 00-.591.388L14.31 33.57c-.14.208-.198.467-.16.72a.98.98 0 00.366.628l.182.14c.195.149.438.21.676.169a.903.903 0 00.591-.389l1.222-1.804c.14-.208.198-.467.159-.72a.977.977 0 00-.365-.628zm-2.892-17.363l-7.51-4.594L.453 22.207l7.504 4.467a.256.256 0 00.302-.027.283.283 0 00.068-.088l5.857-11.864a.302.302 0 00.021-.206.285.285 0 00-.116-.167zm-6.99.45L4.41 20.138a.433.433 0 01-.252.215.404.404 0 01-.321-.035.448.448 0 01-.206-.264.48.48 0 01.027-.342l2.688-5.367a.449.449 0 01.252-.226.403.403 0 01.328.032.463.463 0 01.224.45.474.474 0 01-.051.17zm1.044-2.083l-.321.641a.45.45 0 01-.105.14.42.42 0 01-.314.106.433.433 0 01-.291-.165.465.465 0 01-.094-.337.474.474 0 01.051-.17l.321-.641a.451.451 0 01.105-.14.42.42 0 01.314-.106.433.433 0 01.291.165.465.465 0 01.094.337.475.475 0 01-.051.17zm18.888 3.374c-1.062.243-1.821.214-2.9-.108l-2.265-.677a2.427 2.427 0 00-1.474.025l-2.186.736a2.54 2.54 0 00-.958.586 2.74 2.74 0 00-.638.96l-1.654 4.776c.356.132.736.176 1.11.128a2.386 2.386 0 001.051-.403 2.49 2.49 0 00.734-.813c.184-.325.298-.69.333-1.07.013-.155.04-.309.08-.46.064-.235.15-.464.258-.68.357-.704.887-1.078 1.53-1.08.04 0 .08.007.119.017l1.024.307c.511.154.977.442 1.354.839l7.747 7.909a3.699 3.699 0 001.433-1.424L27.413 15.9l-.383.164zm.647-2.466a.27.27 0 00-.171.17.302.302 0 00.006.226l5.408 12.2c.03.066.081.118.146.144a.251.251 0 00.199-.002l8.286-4.127-5.567-12.632-8.308 4.021zm-8.839 20.612l-.182-.14a.867.867 0 00-.676-.169.904.904 0 00-.591.389l-.731 1.079c-.14.208-.198.466-.16.72a.98.98 0 00.366.628l.181.14a.87.87 0 00.676.169.903.903 0 00.592-.389l.73-1.079c.141-.208.198-.467.16-.72a.978.978 0 00-.365-.628z" fill="#EF5B44"/><path d="M31.067 28.962l-9.119-9.17a2.258 2.258 0 00-.985-.612l-.961-.288c-.573.046-.833.78-.924 1.124-.023.09-.039.181-.046.274v.001a3.606 3.606 0 01-.45 1.449 3.37 3.37 0 01-.993 1.101 3.131 3.131 0 01-3.193.26l-.143-.067a.441.441 0 01-.216-.23.48.48 0 01-.016-.326l1.8-5.241c.082-.203.18-.398.293-.583a4.106 4.106 0 00-1.977.087l-4.513 9.141.99 1.062.623-.918a1.75 1.75 0 011.146-.754 1.68 1.68 0 011.312.33l.15.115c.325.242.566.591.686.993.116.402.1.834-.043 1.226.344.014.675.136.954.35l.181.139c.294.226.515.542.633.906.119.363.129.757.03 1.127a1.68 1.68 0 011.012.352l.182.138c.293.226.514.542.633.906.118.364.128.758.029 1.128.364.002.718.125 1.012.351l.182.14c.293.225.514.541.633.905.118.363.128.757.03 1.127l1.035.88a1.115 1.115 0 00.855.308c.307-.023.593-.176.794-.423.2-.248.301-.57.279-.897a1.263 1.263 0 00-.399-.843l-.852-.783a.463.463 0 01-.125-.202.49.49 0 01.093-.457.43.43 0 01.405-.14c.07.018.134.057.185.112l1.523 1.4c.227.212.52.325.822.314a1.15 1.15 0 001.048-.793 1.307 1.307 0 00-.044-.971 1.23 1.23 0 00-.284-.394l-1.535-1.41a.49.49 0 01-.084-.618.437.437 0 01.13-.128.41.41 0 01.343-.045c.057.018.11.05.155.09l2.246 2.065c.232.212.535.318.84.294a1.13 1.13 0 00.791-.422c.201-.246.302-.567.281-.892a1.264 1.264 0 00-.392-.844l-2.236-2.055a.49.49 0 01-.084-.618.438.438 0 01.13-.127.409.409 0 01.498.046l3.097 2.846c.115.107.249.188.394.239a1.11 1.11 0 00.89-.072c.136-.074.258-.176.358-.3l.004-.005a1.28 1.28 0 00.291-.856 1.24 1.24 0 00-.11-.463 1.174 1.174 0 00-.274-.38z" fill="#EF5B44"/></svg>