<svg width="42" height="42" fill="none" xmlns="http://www.w3.org/2000/svg"><g clip-path="url(#clip0)" fill="#EF5B44"><path d="M4.323 18.249A2.754 2.754 0 001.572 21a2.754 2.754 0 002.75 2.751h6.141a17.194 17.194 0 011.783-5.502H4.323zM22.17 9.802H11.001a2.754 2.754 0 00-2.75 2.751A2.754 2.754 0 0011 15.305h3.19a17.392 17.392 0 017.979-5.503zm10.886 0c2.84.942 5.357 2.6 7.334 4.758.188-.117.385-.338.556-.758a4.338 4.338 0 00.285-1.275 2.754 2.754 0 00-2.751-2.725h-5.424zM2.751 1.356A2.754 2.754 0 000 4.106a2.754 2.754 0 002.751 2.752h27.478a2.754 2.754 0 002.751-2.751 2.754 2.754 0 00-2.75-2.751H2.75zm7.536 25.339H4.323a2.754 2.754 0 00-2.751 2.752 2.754 2.754 0 002.75 2.75h7.008a17.236 17.236 0 01-1.043-5.502zM4.323 40.644h13.636a17.466 17.466 0 01-5.221-5.502H4.323a2.754 2.754 0 00-2.751 2.751 2.754 2.754 0 002.75 2.751zM42 26.257c0-7.933-6.454-14.387-14.387-14.387-7.933 0-14.387 6.454-14.387 14.387 0 7.933 6.454 14.387 14.387 14.387C35.546 40.644 42 34.19 42 26.257zM21.619 27.77h-1.16a1.472 1.472 0 110-2.945h1.16c.7-4.015 4.21-7.077 8.422-7.077a1.472 1.472 0 110 2.945 5.614 5.614 0 00-5.407 4.132h5.407a1.472 1.472 0 110 2.945h-5.407a5.614 5.614 0 005.406 4.13 1.472 1.472 0 010 2.945c-4.212 0-7.722-3.062-8.422-7.077z"/></g><defs><clipPath id="clip0"><path fill="#fff" d="M0 0h42v42H0z"/></clipPath></defs></svg>