<svg width="42" height="42" fill="none" xmlns="http://www.w3.org/2000/svg"><g clip-path="url(#clip0)" fill="#EF5B44"><path d="M28.5 10.5c0 4.755-1.701 9.37-5.054 13.718-.375.49-.79.975-1.217 1.461.018.015.039.027.057.042l.009.009.009.005c.38.304.707.668.969 1.078a30.025 30.025 0 002.512-3.216A23.209 23.209 0 0030 10.5 35.557 35.557 0 0028.465.52a.751.751 0 00-1.428.465A33.855 33.855 0 0128.5 10.5zm-4.601 17.85c.063.296.097.597.101.9a4.487 4.487 0 01-.09.843c.641-.3 1.266-.636 1.87-1.004A11.789 11.789 0 0132.25 27c3.959 0 7.832 2.357 9.75 3.727v-2.649A16.592 16.592 0 0031.5 24a16.264 16.264 0 00-4.62.655 31.788 31.788 0 01-2.981 3.695z"/><path d="M32.25 28.5c-2.52 0-4.068.913-5.707 1.88a13.518 13.518 0 01-3.47 1.597 4.483 4.483 0 01-8.022-2.162 19.095 19.095 0 01-1.522-4.11 4.118 4.118 0 00-2.147-2.765c-2.167-1.063-5.836-.57-11.192 1.5a25.042 25.042 0 005.318 8.502c.275.283.47.632.567 1.014l1.157 4.63c.11.446.42.817.839 1.004 2.002.9 6.638 2.41 15.18 2.41 9.41 0 14.55-1.841 16.324-2.633.28-.125.515-.335.67-.6a13.04 13.04 0 001.74-6.168c-1.117-.884-5.48-4.099-9.735-4.099z"/><path d="M19.5 32.25a3.016 3.016 0 002.505-1.341 3.052 3.052 0 00.362-2.563 3.044 3.044 0 00-1.612-1.82 3.03 3.03 0 00-.795-.236 2.892 2.892 0 00-.46-.04 3 3 0 00-3 3c0 .088.007.174.013.262A3.011 3.011 0 0019.5 32.25zm-7.457-10.656a5.611 5.611 0 012.929 3.7c.193.68.375 1.28.562 1.833a4.511 4.511 0 013.161-2.302 57.316 57.316 0 00-.525-.773C14.686 18.962 12.99 18 7.5 18 3.704 18 .436 20.354 0 21.093v1.81c5.655-2.142 9.5-2.558 12.043-1.309z"/><path d="M18.93 22.52c8.213-7.43 4.03-19.977 3.063-22.516C5.013.264 1.13 13.558.256 18.847A13.125 13.125 0 017.5 16.5c5.687 0 7.976 1.156 11.43 6.02z"/></g><defs><clipPath id="clip0"><path fill="#fff" d="M0 0h42v42H0z"/></clipPath></defs></svg>