<svg width="42" height="42" fill="none" xmlns="http://www.w3.org/2000/svg"><g clip-path="url(#clip0)" fill="#EF5B44"><path d="M32.545 9.421a.906.906 0 00-1.285 0 .91.91 0 001.285 1.285.902.902 0 00.266-.643.902.902 0 00-.266-.642zM17.506 22.753c-.246-.246-.478-.365-.697-.358-.219.008-.436.12-.652.336l-.73.73 1.371 1.372.73-.73c.217-.217.329-.434.336-.653.007-.219-.112-.451-.358-.697z"/><path d="M41.939 16.213L39.938 5.145a3.841 3.841 0 00-3.083-3.083L25.787.06a3.825 3.825 0 00-3.384 1.059L1.12 22.402A3.8 3.8 0 000 25.106c0 1.022.398 1.982 1.12 2.705L14.19 40.88A3.799 3.799 0 0016.892 42a3.799 3.799 0 002.704-1.12L40.88 19.597a3.826 3.826 0 001.059-3.384zM15.754 31.725c-.051.175-.156.34-.313.498a1.183 1.183 0 01-.498.313c-.175.052-.318.021-.431-.092l-4.684-4.683a.412.412 0 01-.114-.41.925.925 0 01.262-.446l2.559-2.56a.401.401 0 01.406-.11.94.94 0 01.435.258.949.949 0 01.27.454.405.405 0 01-.108.402l-1.91 1.91 1.246 1.247 1.114-1.114a.415.415 0 01.387-.122c.15.027.287.102.41.225a.753.753 0 01.213.391.412.412 0 01-.125.391l-1.114 1.114 1.903 1.903c.113.113.144.257.092.431zm6.27-6.38c-.027.283-.127.51-.3.683-.171.172-.365.223-.582.154l-2.972-.951-.487.487 1.778 1.777c.113.113.143.257.092.432-.052.175-.156.34-.314.498a1.184 1.184 0 01-.497.313c-.175.052-.319.021-.432-.092l-4.69-4.691a.48.48 0 01-.145-.343.478.478 0 01.152-.358l1.526-1.527c1.21-1.21 2.341-1.288 3.393-.236.767.768.969 1.564.605 2.39l2.53.73c.059.01.115.042.17.096.142.143.2.355.173.638zm4.075-3.78l-2.626 2.626a.925.925 0 01-.446.262.413.413 0 01-.41-.115l-4.683-4.683a.413.413 0 01-.114-.41.925.925 0 01.261-.446l2.626-2.625a.402.402 0 01.406-.111.94.94 0 01.435.258.947.947 0 01.27.454.405.405 0 01-.108.402l-1.977 1.977L20.98 20.4l1.107-1.106a.415.415 0 01.387-.122c.15.027.286.102.409.225a.753.753 0 01.214.39.412.412 0 01-.126.392l-1.106 1.106 1.254 1.254 1.977-1.977a.405.405 0 01.401-.107c.16.037.311.127.454.27a.935.935 0 01.258.435.401.401 0 01-.11.405zm3.975-3.975l-2.626 2.626a.926.926 0 01-.446.262.412.412 0 01-.41-.115L21.91 15.68a.413.413 0 01-.114-.41.925.925 0 01.262-.446l2.625-2.626a.401.401 0 01.406-.11.94.94 0 01.435.258.947.947 0 01.27.454.405.405 0 01-.108.402l-1.976 1.976 1.246 1.247 1.107-1.107a.415.415 0 01.387-.121c.15.027.286.102.409.225a.753.753 0 01.214.39.412.412 0 01-.125.391L25.84 17.31l1.254 1.254 1.977-1.977a.405.405 0 01.401-.107c.16.037.311.127.454.27a.937.937 0 01.258.434.4.4 0 01-.11.406zm4.213-5.143a3.36 3.36 0 01-2.384.986 3.36 3.36 0 01-2.384-.986 3.375 3.375 0 010-4.768 3.375 3.375 0 014.768 0c.636.637.987 1.484.987 2.384 0 .9-.35 1.747-.987 2.384z"/></g><defs><clipPath id="clip0"><path fill="#fff" d="M0 0h42v42H0z"/></clipPath></defs></svg>