<svg width="42" height="42" fill="none" xmlns="http://www.w3.org/2000/svg"><path d="M21 35.538a18.87 18.87 0 01-9.289-2.433v7.683a1.212 1.212 0 001.71 1.105L21 38.483l7.58 3.41a1.21 1.21 0 001.708-1.105v-7.683A18.863 18.863 0 0121 35.538z" fill="#EF5B44"/><path d="M21 0C11.87 0 4.442 7.428 4.442 16.558c0 5.758 2.956 10.838 7.429 13.806l.133.088.163.104.136.085.162.1a15.196 15.196 0 00.736.419l.153.08.16.084.264.131c.056.028.113.054.169.08a14.445 14.445 0 00.508.23l.152.066c.1.042.2.083.302.123l.132.052a17.312 17.312 0 00.557.204l.141.048c.107.036.215.071.323.105l.11.034a17.668 17.668 0 00.607.172l.13.034c.114.03.228.058.343.084l.081.018a15.2 15.2 0 00.66.136l.121.022.36.06.052.007c.106.016.213.031.32.045l.12.015.269.031.116.012c.124.013.249.024.374.034l.024.001c.118.01.237.017.356.023l.116.005c.093.005.186.008.28.011l.115.004a16.944 16.944 0 00.768 0l.115-.004c.094-.002.187-.006.28-.01l.117-.006c.119-.007.237-.014.355-.023l.024-.001c.126-.01.25-.021.375-.034l.115-.012a15.806 15.806 0 00.71-.09l.051-.008.36-.06.121-.022.25-.048.13-.026c.093-.02.187-.04.28-.062l.081-.018a16.9 16.9 0 00.343-.084 17.145 17.145 0 00.357-.096l.14-.039.24-.072a16.858 16.858 0 00.432-.138l.142-.048.201-.071.15-.055.206-.078.132-.052c.102-.04.202-.081.303-.123l.152-.066a13.713 13.713 0 00.508-.23 17.12 17.12 0 00.433-.212c.053-.026.106-.054.159-.082a16.07 16.07 0 00.89-.5l.162-.1.136-.085.162-.104.133-.088c4.473-2.968 7.429-8.048 7.429-13.806C37.558 7.428 30.13 0 21 0zm-5.654 14.135h-1.211v6.057a1.212 1.212 0 01-2.423 0v-6.057H10.5a1.212 1.212 0 010-2.423h4.846a1.212 1.212 0 010 2.423zm9.289 4.442a2.83 2.83 0 01-2.827 2.827h-1.616a2.83 2.83 0 01-2.827-2.827v-4.039a2.83 2.83 0 012.827-2.827h1.616a2.83 2.83 0 012.827 2.828v4.038zm8.077-3.635a2.83 2.83 0 01-2.827 2.827h-2.02v2.423a1.211 1.211 0 11-2.423 0V14.54a2.83 2.83 0 012.827-2.828h1.616a2.83 2.83 0 012.827 2.828v.403z" fill="#EF5B44"/><path d="M29.885 14.135h-1.616a.404.404 0 00-.403.404v.807h2.019a.404.404 0 00.403-.404v-.403a.404.404 0 00-.403-.404zm-8.077 0h-1.616a.404.404 0 00-.404.404v4.038c0 .223.181.404.404.404h1.616a.404.404 0 00.403-.404v-4.039a.404.404 0 00-.403-.403z" fill="#EF5B44"/></svg>