<svg width="42" height="42" fill="none" xmlns="http://www.w3.org/2000/svg"><path d="M30.923 19.169l.209.002h.018c.392.008.78.033 1.165.075V4.956A4.956 4.956 0 0027.36 0H5.858A4.956 4.956 0 00.902 4.956v28.503a4.956 4.956 0 004.956 4.956h14.355a12.496 12.496 0 01-1.888-6.641c0-6.95 5.651-12.605 12.598-12.605zM18.675 8.091h7.344a1.23 1.23 0 110 2.461h-7.344a1.23 1.23 0 110-2.46zm0 4.923h7.344a1.23 1.23 0 110 2.46h-7.344a1.23 1.23 0 110-2.46zm-4.132 17.31H7.199a1.23 1.23 0 110-2.462h7.343a1.23 1.23 0 010 2.461zm0-5.005H7.199a1.23 1.23 0 110-2.461h7.343a1.23 1.23 0 010 2.46zm0-4.922H7.199a1.23 1.23 0 110-2.461h7.343a1.23 1.23 0 010 2.46zm0-4.923H7.199a1.23 1.23 0 110-2.46h7.343a1.23 1.23 0 010 2.46zm0-4.922H7.199a1.23 1.23 0 110-2.46h7.343a1.23 1.23 0 010 2.46zm2.902 8.614c0-.68.55-1.23 1.23-1.23h3.537a1.23 1.23 0 110 2.46h-3.537c-.68 0-1.23-.55-1.23-1.23z" fill="#EF5B44"/><path d="M38.209 24.605a10.153 10.153 0 00-7.103-3.055h-.017a9.22 9.22 0 00-.166-.002c-5.635 0-10.22 4.587-10.22 10.226 0 2.24.711 4.366 2.056 6.15A10.139 10.139 0 0030.923 42c5.634 0 10.219-4.587 10.219-10.226 0-2.7-1.042-5.245-2.933-7.17zm-3.8 8.86a1.23 1.23 0 11-1.722 1.759l-1.764-1.728-1.765 1.728c-.24.234-.55.351-.861.351a1.23 1.23 0 01-.861-2.11l1.728-1.691-1.728-1.692a1.23 1.23 0 011.722-1.758l1.765 1.728 1.764-1.728a1.23 1.23 0 111.722 1.758l-1.727 1.692 1.727 1.692z" fill="#EF5B44"/></svg>