<svg width="42" height="42" fill="none" xmlns="http://www.w3.org/2000/svg"><g clip-path="url(#clip0)" fill="#EF5B44"><path d="M15.75 17.5a8.75 8.75 0 100-17.5 8.75 8.75 0 000 17.5zm.875 13.125c0-3.73 1.475-7.114 3.86-9.625H8.313C3.729 21 0 24.73 0 29.313v6.125c0 .724.588 1.312 1.313 1.312h16.742a13.897 13.897 0 01-1.43-6.125z"/><path d="M30.625 19.25c-6.272 0-11.375 5.103-11.375 11.375S24.353 42 30.625 42 42 36.897 42 30.625 36.897 19.25 30.625 19.25zm3.862 15.237a1.745 1.745 0 01-2.474 0l-2.625-2.625a1.742 1.742 0 01-.513-1.237V26.25a1.75 1.75 0 113.5 0v3.65l2.112 2.113c.684.684.684 1.79 0 2.474z"/></g><defs><clipPath id="clip0"><path fill="#fff" d="M0 0h42v42H0z"/></clipPath></defs></svg>