<svg width="42" height="42" fill="none" xmlns="http://www.w3.org/2000/svg"><path d="M0 26.347v2.257c0 1.72 1.4 3.12 3.12 3.12h3.787c1.72 0 3.12-1.4 3.12-3.12v-.283H5.02c-1.87 0-3.64-.7-5.019-1.974zm16.45-16.41c1.332 0 6.532.227 10.884 1.155a13.94 13.94 0 011.577-.263l-1.256-2.387C26.739 6.7 25.032 5.66 23.09 5.66H9.782c-1.94 0-3.647 1.04-4.563 2.78l-1.682 3.197c1.442-.471 3.133-.854 5.047-1.142 2.427-.365 5.147-.558 7.866-.558zm-5.13 8.418h6.643a14.129 14.129 0 015.049-5.48c-3.035-.372-5.814-.477-6.562-.477-5.296 0-10.269.748-13.302 2-1.937.8-3.143 2.633-3.146 4.781L0 20.701a5.178 5.178 0 001.517 3.693 4.923 4.923 0 003.502 1.466h11.429a13.985 13.985 0 01.528-5.044H11.32a1.23 1.23 0 110-2.461zM6.275 20.85a1.264 1.264 0 01-1.261-1.261c0-.695.566-1.262 1.26-1.262.695 0 1.262.567 1.262 1.262 0 .694-.567 1.26-1.261 1.26z" fill="#EF5B44"/><path d="M30.434 13.207c-6.378 0-11.567 5.189-11.567 11.566 0 6.378 5.189 11.567 11.567 11.567C36.81 36.34 42 31.15 42 24.773s-5.189-11.566-11.566-11.566zm4.981 16.548a1.227 1.227 0 01-1.74 0l-4.111-4.111a1.23 1.23 0 01-.36-.87v-5.81a1.23 1.23 0 112.46 0v5.3l3.751 3.751a1.23 1.23 0 010 1.74z" fill="#EF5B44"/></svg>