<svg width="42" height="42" fill="none" xmlns="http://www.w3.org/2000/svg"><g clip-path="url(#clip0)" fill="#EF5B44"><path d="M41.851 21.7l-3.5-8.095a1.823 1.823 0 00-1.616-1.093l-.025-.003-6.541.002h-.038c-.725 0-1.38.429-1.667 1.094l-.666 1.54c-.688-.783-1.757-1.333-2.736-1.333H8.56c-1.316 0-2.792.99-3.292 2.207l-1.76 4.29-1.677-.463c-.15-.041-.3-.062-.447-.062-.802 0-1.385.613-1.385 1.458v1a1.79 1.79 0 001.788 1.788h.192l-.284.694c-.464 1.13-.842 3.044-.842 4.266v8.532a1.79 1.79 0 001.788 1.788h2.335a1.79 1.79 0 001.788-1.788v-2.13h20.092v2.13a1.79 1.79 0 001.788 1.788h2.335a1.79 1.79 0 001.69-1.208 1.99 1.99 0 00.264-.99v-10.39h.848v10.39c0 1.103.897 2 2 2s2-.897 2-2V21.44l.735 1.7a1.815 1.815 0 103.334-1.44zm-37.06 1.36l2.667-6.497c.298-.728 1.187-1.323 1.973-1.323h14.76c.787 0 1.675.595 1.974 1.323l.497 1.21-1.698 3.926c-.193.446-.2.94-.022 1.39.179.451.523.806.968.998a1.815 1.815 0 002.387-.946l.291-.674.244.592c.298.728-.1 1.324-.888 1.324H5.678c-.787 0-1.186-.596-.887-1.324zm5.953 8.216a.717.717 0 01-.715.715H4.963a.717.717 0 01-.716-.715v-2.431c0-.393.322-.715.716-.715h5.066c.393 0 .715.322.715.715v2.431zm17.867.715h-5.066a.717.717 0 01-.715-.715v-2.431c0-.393.322-.715.715-.715h5.066c.117 0 .226.03.323.08v3.7a.705.705 0 01-.323.081zm4.569-20.147a4.582 4.582 0 004.575-4.577A4.582 4.582 0 0033.18 2.69a4.582 4.582 0 00-4.577 4.577 4.582 4.582 0 004.577 4.577z"/></g><defs><clipPath id="clip0"><path fill="#fff" d="M0 0h42v42H0z"/></clipPath></defs></svg>