<svg width="14" height="14" fill="none" xmlns="http://www.w3.org/2000/svg"><g clip-path="url(#clip0)" fill="#1145C8"><path d="M3.5 0a.5.5 0 00-.5.5v1h1v-1a.5.5 0 00-.5-.5zm7 0a.5.5 0 00-.5.5v1h1v-1a.5.5 0 00-.5-.5zm2 1.5H11v2a.5.5 0 01-1 0v-2H4v2a.5.5 0 11-1 0v-2H1.5A1.5 1.5 0 000 3v9.5A1.5 1.5 0 001.5 14h11a1.5 1.5 0 001.5-1.5V3a1.5 1.5 0 00-1.5-1.5zm.5 11a.5.5 0 01-.5.5h-11a.5.5 0 01-.5-.5V6h12v6.5z"/><path d="M10.354 7.147a.5.5 0 00-.707 0L6 10.792 4.354 9.146a.5.5 0 10-.707.708l2 2a.5.5 0 00.707 0l4-4a.5.5 0 000-.707z"/></g><defs><clipPath id="clip0"><path fill="#fff" d="M0 0h14v14H0z"/></clipPath></defs></svg>