<svg width="16" height="16" fill="none" xmlns="http://www.w3.org/2000/svg"><g clip-path="url(#clip0)" fill="#fff"><path d="M15.86 3.179l-4.853 4.82 4.852 4.822a1.39 1.39 0 00.141-.602V3.78c0-.216-.053-.42-.14-.602zm-1.266-.804H1.406c-.216 0-.419.053-.602.14l6.202 6.172c.548.548 1.44.548 1.988 0l6.202-6.171a1.39 1.39 0 00-.602-.141zM.14 3.179A1.39 1.39 0 000 3.78v8.438c0 .216.053.419.14.602L4.994 8 .141 3.179z"/><path d="M10.344 8.663l-.687.687c-.914.913-2.4.913-3.314 0l-.687-.687-4.852 4.821c.183.088.386.141.602.141h13.188c.216 0 .419-.053.602-.14l-4.852-4.822z"/></g><defs><clipPath id="clip0"><path fill="#fff" d="M0 0h16v16H0z"/></clipPath></defs></svg>