<svg width="14" height="14" fill="none" xmlns="http://www.w3.org/2000/svg"><path d="M2.814 5.625a2.26 2.26 0 114.52 0 2.26 2.26 0 01-4.52 0zM6.033 8.04H4.115a2.897 2.897 0 00-2.893 2.894v2.346l.006.036.162.05c1.522.476 2.845.635 3.934.635 2.126 0 3.359-.606 3.435-.645l.151-.077h.016v-2.345A2.897 2.897 0 006.033 8.04zm2.893-3.52a2.26 2.26 0 100-4.519 2.26 2.26 0 000 4.52zm.96.155h-1.92c-.045 0-.09.005-.135.007a2.78 2.78 0 01-.59 3.216 3.444 3.444 0 012.41 2.726c1.832-.08 2.889-.598 2.96-.633l.15-.077h.016V7.567a2.896 2.896 0 00-2.893-2.893z" fill="#1145C8"/></svg>