<svg width="12" height="12" fill="none" xmlns="http://www.w3.org/2000/svg"><g clip-path="url(#clip0)" fill="#1145C8"><path d="M9.974 8.57l1.092-1.092-.497-.497-.825.826-.269-.89 1.053-1.053-.497-.498-.786.787-.22-.73L6.664 7.69 9.363 12l1.264-1.264-.653-2.165zM6.577 2.975l-.73-.22.787-.786-.498-.497-1.052 1.052-.89-.268.825-.825-.497-.498L3.43 2.026l-2.165-.653L0 2.637l4.311 2.7 2.266-2.362z"/><path d="M11.656 1.925a1.118 1.118 0 10-1.582-1.58L3.24 7.468l-2.15-.47L.013 8.077l2.493 1.417 1.418 2.494L5 10.911l-.469-2.15 7.125-6.836z"/></g><defs><clipPath id="clip0"><path fill="#fff" d="M0 0h12v12H0z"/></clipPath></defs></svg>