<svg width="32" height="32" fill="none" xmlns="http://www.w3.org/2000/svg"><path d="M20.923 29.538h7.385c1.025 0 1.897-.359 2.615-1.076.718-.718 1.077-1.59 1.077-2.616v-7.384c0-1.026-.359-1.898-1.077-2.616-.718-.717-1.59-1.077-2.615-1.077H24a1.78 1.78 0 01-1.308-.538 1.78 1.78 0 01-.538-1.308v-.615c0-1.359.48-2.519 1.442-3.48.962-.962 2.122-1.443 3.481-1.443h1.23c.334 0 .623-.122.866-.365.244-.244.366-.532.366-.866V3.693c0-.333-.122-.622-.366-.866a1.184 1.184 0 00-.865-.365h-1.231c-1.334 0-2.606.26-3.818.779a9.92 9.92 0 00-3.144 2.106A9.924 9.924 0 0018.01 8.49a9.593 9.593 0 00-.78 3.817v13.538c0 1.026.36 1.898 1.078 2.616.718.717 1.59 1.076 2.615 1.076zM1.077 28.462c.718.717 1.59 1.076 2.616 1.076h7.384c1.026 0 1.898-.359 2.615-1.076.718-.718 1.077-1.59 1.077-2.616v-7.384c0-1.026-.359-1.898-1.077-2.616-.717-.717-1.59-1.077-2.615-1.077H6.77c-.512 0-.949-.18-1.308-.538a1.781 1.781 0 01-.538-1.308v-.615c0-1.359.48-2.519 1.443-3.48.961-.962 2.12-1.443 3.48-1.443h1.231c.333 0 .622-.122.865-.365.244-.244.366-.532.366-.866V3.693c0-.333-.122-.622-.366-.866a1.183 1.183 0 00-.865-.365h-1.23c-1.334 0-2.606.26-3.818.779a9.921 9.921 0 00-3.144 2.106A9.917 9.917 0 00.779 8.49 9.593 9.593 0 000 12.308v13.538c0 1.026.359 1.898 1.077 2.616z" fill="#EF5B44"/></svg>