<svg width="18" height="18" fill="none" xmlns="http://www.w3.org/2000/svg"><g clip-path="url(#clip0)"><path d="M17.748 15.466l-4.31-4.452c-.309-.32-.695-.447-.862-.284-.168.162-.555.035-.864-.285l-.061-.064a6.47 6.47 0 00-9.73-8.485 6.473 6.473 0 008.617 9.633l.027.028c.308.32.423.71.255.872-.168.163-.054.553.255.872l4.308 4.454a.805.805 0 001.138.019l1.208-1.17a.806.806 0 00.02-1.138zM9.654 9.627a4.467 4.467 0 01-6.31.001 4.467 4.467 0 010-6.31 4.466 4.466 0 016.31 0 4.466 4.466 0 010 6.31z" fill="#F9FAFB"/></g><defs><clipPath id="clip0"><path fill="#fff" d="M0 0h18v18H0z"/></clipPath></defs></svg>