<svg width="14" height="14" fill="none" xmlns="http://www.w3.org/2000/svg"><g clip-path="url(#clip0)"><path d="M13.804 12.03l-3.352-3.464c-.24-.248-.54-.347-.67-.22-.131.126-.432.026-.672-.222l-.048-.05a5.032 5.032 0 00-7.567-6.6 5.034 5.034 0 006.7 7.493l.022.022c.24.248.33.552.198.678-.13.127-.042.43.199.678l3.35 3.464c.24.248.637.256.885.015l.94-.91a.627.627 0 00.015-.885zM7.508 7.487a3.474 3.474 0 01-4.907 0 3.475 3.475 0 010-4.907 3.474 3.474 0 014.907 0 3.474 3.474 0 010 4.907z" fill="#1145C8"/></g><defs><clipPath id="clip0"><path fill="#fff" d="M0 0h14v14H0z"/></clipPath></defs></svg>