<svg width="12" height="12" fill="none" xmlns="http://www.w3.org/2000/svg"><g clip-path="url(#clip0)"><path d="M10.378 2.15a1.075 1.075 0 100-2.15 1.075 1.075 0 000 2.15zm-2.389-.785c.481 0 1.19.294 1.19 1.003 0 .709-.454 2.014-.454 2.014s1.188.778 1.483 1.017c.62.498.41.945-.42.595-1.346-.568-1.978-.848-2.079-1.203-.101-.355-.012-1.074-.012-1.074l-.777.323-3.291-2.42s-.302.215-.46.215c-.16 0-.349-.116-.349-.116l.366-.492L2.793.75l.545.232c-.01 0 .337-.455.337-.455s.18.106.223.317a.837.837 0 01-.037.415l1.417 1.038s.836-.931 2.71-.931zm-3.481 1.9S7.174 5.13 7.528 5.41c.356.279 1.2 1.017.311 2.111-.871 1.071-1.805 2.12-1.805 2.12l-.533-.228-.684-.355s1.283-1.6 1.511-1.905c.228-.304.155-.555-.154-.787-.3-.225-.81-.52-1.26-.833-.445-.31-1.143-1.26-.406-2.267z" fill="#1145C8"/><path d="M.49 6.099l9.196 5.274s1.191.532 1.825-.33" stroke="#1145C8" stroke-width="2" stroke-miterlimit="10" stroke-linecap="round" stroke-linejoin="round"/></g><defs><clipPath id="clip0"><path fill="#fff" d="M0 0h12v12H0z"/></clipPath></defs></svg>