<svg width="24" height="24" fill="none" xmlns="http://www.w3.org/2000/svg"><path d="M3 0h18c1.655 0 3 1.345 3 3v18c0 1.655-1.345 3-3 3H3c-1.655 0-3-1.345-3-3V3c0-1.655 1.345-3 3-3z" fill="#4ABA4F"/><path d="M12 6.375c-2.498 0-4.373.628-6.248 2.503H2.625s0 .938 1.252 1.252c-.563.764-1.252 2.095-1.252 3.122 0 2.578 1.795 4.373 4.373 4.373 1.463 0 2.893-.82 3.75-1.875L12 17.625l1.252-1.875c.857 1.055 2.287 1.875 3.75 1.875 2.578 0 4.373-1.795 4.373-4.373 0-1.027-.69-2.354-1.252-3.127 1.252-.314 1.252-1.252 1.252-1.252h-3.127C16.373 6.998 14.498 6.375 12 6.375zm0 .623c3.127 0 5.002 1.875 5.002 1.875C14.498 8.873 12 12 12 15.127 12 12 9.502 8.878 6.998 8.878c0-.005 1.875-1.88 5.002-1.88zm-5.002 3.127a3.126 3.126 0 110 6.253 3.123 3.123 0 01-3.126-3.126 3.132 3.132 0 013.126-3.127zm10.004 0a3.126 3.126 0 110 6.253 3.126 3.126 0 110-6.253zM6.998 11.377a1.874 1.874 0 100 3.748 1.874 1.874 0 000-3.748zm10.004 0A1.874 1.874 0 1017 15.125a1.874 1.874 0 00.002-3.748zM6.998 12c.69 0 1.252.563 1.252 1.252A1.251 1.251 0 116.998 12zm10.004 0c.689 0 1.251.563 1.251 1.252 0 .689-.562 1.251-1.251 1.251a1.251 1.251 0 110-2.503zm-10.004.623a.623.623 0 100 1.247.623.623 0 000-1.247zm10.004 0a.623.623 0 100 1.247.623.623 0 000-1.247z" fill="#fff"/></svg>